<svg width="60" height="65" viewBox="0 0 60 65" fill="none" xmlns="http://www.w3.org/2000/svg">
<g clip-path="url(#clip0_10_2)">
<path d="M2.24561 50.8572C11.8789 34.1789 21.4757 17.5631 31.062 0.96822C31.1055 0.95779 31.1194 0.952576 31.1333 0.952576C31.1455 0.954314 31.1646 0.959529 31.1698 0.96822C36.6765 10.5024 42.1832 20.0384 47.69 29.5743C47.7317 29.6473 47.7665 29.7238 47.7995 29.802C47.8082 29.8246 47.7943 29.8559 47.7856 29.9341C47.6031 29.9393 47.4101 29.948 47.2189 29.948C42.0703 29.955 36.9234 29.9602 31.7747 29.9706C31.2654 29.9724 30.7578 29.9932 30.2485 30.0124C30.0817 30.0176 29.9513 29.9845 29.8574 29.8264C29.1552 28.6652 28.4477 27.5093 27.742 26.3499C27.7351 26.3395 27.7385 26.3221 27.7333 26.2491C27.8759 26.2404 28.0201 26.2247 28.1644 26.2247C31.2341 26.2265 34.3021 26.2282 37.3718 26.2317C38.008 26.2317 38.6442 26.2352 39.2804 26.2317C39.4281 26.2317 39.5759 26.2074 39.7306 26.1935C39.6489 25.8284 31.4427 11.5853 31.1124 11.2255C31.0377 11.3316 30.9577 11.4237 30.8986 11.528C28.8214 15.1279 26.746 18.7277 24.6688 22.3276C20.7908 29.0494 16.9111 35.7694 13.0331 42.4911C11.5 45.1471 9.96162 47.8014 8.44067 50.4644C8.26337 50.7755 8.06869 50.8955 7.71061 50.892C6.05581 50.8746 4.40101 50.8851 2.74622 50.8833C2.60542 50.8816 2.46984 50.8694 2.24561 50.8572Z" fill="#FEFFFF"/>
<path d="M59.9323 50.829C59.6855 50.829 59.5343 50.829 59.3813 50.829C55.6476 50.8377 51.9121 50.8429 48.1784 50.8533C46.2976 50.8585 44.4168 50.8585 42.5361 50.8881C42.1363 50.895 41.9294 50.7507 41.7417 50.417C40.9595 49.0247 40.1512 47.6463 39.3534 46.2626C39.2717 46.1201 39.1987 45.9723 39.0839 45.7585C39.3308 45.7498 39.5081 45.7359 39.6836 45.7359C43.2627 45.7394 46.8399 45.7446 50.419 45.7464C50.6084 45.7464 50.7996 45.722 51.0638 45.7029C50.9665 45.5117 50.9091 45.3883 50.8414 45.2718C49.9722 43.7665 49.0944 42.2647 48.2375 40.7524C48.088 40.4882 47.9037 40.4117 47.6239 40.4135C43.918 40.4274 40.2121 40.4274 36.5061 40.4517C36.1081 40.4552 35.8995 40.3196 35.7118 39.9841C34.9244 38.5779 34.1091 37.189 33.3043 35.7915C33.2296 35.6611 33.16 35.5256 33.0523 35.3239C33.2939 35.3118 33.4695 35.2944 33.645 35.2944C37.9732 35.2961 42.3014 35.2996 46.6296 35.3048C47.9594 35.3065 49.2891 35.3152 50.6189 35.3048C50.9074 35.3031 51.0743 35.3969 51.222 35.6559C54.038 40.5595 56.8661 45.4578 59.689 50.3579C59.7602 50.4761 59.8176 50.6013 59.9323 50.829Z" fill="#FEFFFF"/>
<path d="M35.7866 50.7504C35.3625 50.8651 14.8965 50.9329 14.3594 50.8251C14.4046 50.7226 14.4394 50.62 14.4915 50.5279C15.3519 49.033 16.2228 47.5451 17.071 46.0432C17.2275 45.7669 17.4291 45.7338 17.6986 45.7338C21.0221 45.7425 24.3473 45.7443 27.6708 45.7495C29.2543 45.7512 30.8396 45.7651 32.4231 45.7495C32.7916 45.746 33.0072 45.8485 33.1932 46.184C33.9702 47.5798 34.7819 48.9565 35.5798 50.3401C35.6545 50.4705 35.7153 50.6096 35.7866 50.7504Z" fill="#FEFFFF"/>
<path d="M25.1194 32.1909C26.6873 34.9181 28.2291 37.602 29.7778 40.2962C29.4128 40.4162 21.1771 40.5013 20.4331 40.411C20.4244 40.3988 20.414 40.3884 20.4088 40.3762C20.4036 40.364 20.3983 40.3466 20.4036 40.338C21.9228 37.6941 23.442 35.052 24.9629 32.4099C24.9942 32.3525 25.0394 32.3004 25.1194 32.1909Z" fill="#FEFFFF"/>
<path d="M30.4761 64.7504C30.4761 61.811 30.4761 58.9203 30.4761 56.0036C30.6239 55.9932 30.7473 55.974 30.8707 55.974C31.9866 55.9723 33.1026 55.9653 34.2185 55.9758C34.8443 55.981 35.4527 56.0835 36.0159 56.3895C37.4117 57.1473 37.2761 58.9273 36.5269 59.6626C36.3183 59.8677 36.068 60.0311 35.8055 60.2397C35.9428 60.3022 36.0767 60.3631 36.2105 60.4239C37.0362 60.7994 37.5542 61.3886 37.5646 62.3412C37.575 63.3024 37.1335 63.9838 36.2818 64.4097C35.7534 64.6739 35.185 64.7834 34.6027 64.7886C33.332 64.8025 32.0596 64.7938 30.789 64.7921C30.6916 64.7904 30.596 64.766 30.4761 64.7504ZM31.4721 60.8028C31.4721 61.8649 31.4721 62.8592 31.4721 63.85C31.5416 63.8691 31.5816 63.8917 31.6216 63.8917C32.6228 63.8934 33.6258 63.9125 34.627 63.8865C35.0911 63.8743 35.55 63.7718 35.9481 63.4919C36.8363 62.8661 36.7511 61.559 35.7725 61.0949C35.4735 60.9541 35.1294 60.855 34.8008 60.8394C33.8709 60.7976 32.9392 60.8098 32.0092 60.8011C31.8389 60.8028 31.672 60.8028 31.4721 60.8028ZM31.4704 56.8379C31.4704 57.9035 31.4704 58.8821 31.4704 59.859C31.5382 59.8798 31.5781 59.9007 31.6181 59.9007C32.4942 59.9042 33.372 59.9303 34.2463 59.892C34.6027 59.8764 34.9747 59.7651 35.2997 59.6139C35.8751 59.3445 36.0871 58.8352 36.0489 58.2146C36.0124 57.6201 35.6699 57.2603 35.1433 57.0535C34.9868 56.9926 34.8182 56.9388 34.6531 56.9318C33.6101 56.8936 32.5655 56.8692 31.4704 56.8379Z" fill="#FEFFFF"/>
<path d="M9.369 64.7882C9.00223 64.7882 8.73802 64.7848 8.47207 64.79C8.27044 64.7935 8.22003 64.644 8.15571 64.4997C7.90367 63.9313 7.6412 63.3681 7.4048 62.7945C7.30398 62.5494 7.16666 62.459 6.89897 62.4625C5.54315 62.4747 4.18733 62.4747 2.82977 62.4625C2.56729 62.4608 2.42128 62.539 2.32047 62.7875C2.08928 63.349 1.81116 63.8896 1.58693 64.4545C1.47742 64.7291 1.32098 64.823 1.0446 64.7969C0.865564 64.7796 0.68305 64.7935 0.530085 64.7935C0.497059 64.7326 0.488368 64.7222 0.484891 64.71C0.479676 64.6961 0.470985 64.6805 0.474462 64.67C0.493582 64.6023 0.510965 64.5345 0.538776 64.4702C1.82333 61.6281 3.10788 58.7879 4.39765 55.9389C4.7227 55.9389 5.03037 55.9389 5.36237 55.9389C6.68517 58.8539 8.00275 61.7689 9.369 64.7882ZM4.91565 57.2078C4.88436 57.2096 4.85133 57.2113 4.82004 57.2113C4.18385 58.6314 3.54592 60.0516 2.88887 61.5204C4.22904 61.5204 5.50317 61.5204 6.83987 61.5204C6.18456 60.0533 5.5501 58.6297 4.91565 57.2078Z" fill="#FEFFFF"/>
<path d="M46.9163 61.0081C47.0867 60.1285 46.6069 59.3637 45.7604 59.1464C45.0808 58.9726 44.4133 59.0543 43.7562 59.2594C43.5303 59.3307 43.3112 59.4194 43.0523 59.515C42.9566 59.2542 42.8697 59.0196 42.7741 58.7606C42.8836 58.698 42.974 58.6337 43.0731 58.592C44.0396 58.1887 45.046 58.0826 46.0646 58.2982C47.1701 58.5329 47.8411 59.2838 47.8811 60.4032C47.9315 61.8164 47.8932 63.2313 47.8915 64.6462C47.8915 64.6706 47.8706 64.6966 47.8446 64.7557C47.5873 64.7557 47.3127 64.7557 46.9963 64.7557C46.9807 64.4985 46.965 64.2412 46.9459 63.9214C46.8051 64.0448 46.713 64.123 46.6226 64.203C45.7013 65.0217 44.2499 65.1764 43.1757 64.5697C42.529 64.2047 42.197 63.645 42.1901 62.9045C42.1831 62.1519 42.496 61.5678 43.1565 61.1854C43.6067 60.9247 44.1021 60.8152 44.6149 60.7821C45.2389 60.7421 45.8578 60.7856 46.4696 60.9247C46.6174 60.9594 46.7686 60.9803 46.9163 61.0081ZM46.9789 61.7886C46.1324 61.5226 45.312 61.4357 44.4776 61.5522C44.2464 61.5852 44.017 61.6825 43.8049 61.7886C43.5164 61.9311 43.3234 62.1727 43.2313 62.4873C43.0488 63.1183 43.3443 63.7371 43.9944 63.9892C44.8878 64.3351 45.7135 64.1647 46.447 63.5668C46.7651 63.3078 46.9355 62.9462 46.9737 62.5395C46.998 62.3048 46.9789 62.0649 46.9789 61.7886Z" fill="#FEFFFF"/>
<path d="M23.4397 61.8996C21.7537 61.8996 20.078 61.8996 18.4128 61.8996C18.265 62.6105 18.9638 63.5405 19.527 63.8325C20.49 64.3314 21.5538 64.1315 22.668 63.1893C22.8557 63.3545 23.0486 63.5248 23.2607 63.7091C22.9357 64.1436 22.5463 64.4426 22.0926 64.6425C21.2444 65.0162 20.3648 65.0475 19.4887 64.7572C18.6579 64.4809 18.0356 63.9316 17.6879 63.1285C17.1195 61.8144 17.1925 60.5281 18.0443 59.3548C18.7343 58.404 19.7164 58.0303 20.8689 58.1676C22.0248 58.3049 22.7966 58.9689 23.2259 60.0449C23.4293 60.5524 23.4849 61.0826 23.5023 61.6215C23.5041 61.6979 23.4676 61.7779 23.4397 61.8996ZM18.3937 61.1539C19.7425 61.1539 21.0931 61.1539 22.4403 61.1539C22.522 59.9927 21.6007 58.9846 20.4778 58.9741C19.3445 58.9637 18.3206 60.0223 18.3937 61.1539Z" fill="#FEFFFF"/>
<path d="M12.0058 64C13.3998 64 14.7783 64 16.1793 64C16.1793 64.2694 16.1793 64.5006 16.1793 64.7614C14.3072 64.7614 12.4647 64.7614 10.6065 64.7614C10.5213 64.4155 10.5613 64.1408 10.8047 63.861C12.0353 62.4408 13.2451 61.0033 14.4636 59.5727C14.5697 59.4476 14.6722 59.319 14.8374 59.1156C13.4259 59.1156 12.1049 59.1156 10.7334 59.1156C10.7212 58.8375 10.7108 58.6063 10.7004 58.3838C11.0272 58.276 15.7221 58.2569 16.1671 58.3508C16.2679 58.6741 16.1862 58.9365 15.9603 59.199C14.7122 60.6418 13.4781 62.0949 12.2422 63.5481C12.1431 63.668 11.978 63.7619 12.0058 64Z" fill="#FEFFFF"/>
<path d="M54.2951 58.9062C54.1421 59.1583 54.0135 59.3738 53.8727 59.605C53.6276 59.4868 53.419 59.3703 53.2 59.2817C52.6577 59.0609 52.1015 58.8923 51.5105 59.0557C51.3245 59.1079 51.1333 59.1913 50.9838 59.3112C50.5614 59.6502 50.5822 60.2273 51.0272 60.535C51.2219 60.6688 51.4479 60.7679 51.6704 60.8513C52.0145 60.98 52.3692 61.0738 52.7168 61.1938C52.9567 61.2772 53.1983 61.3624 53.4243 61.4736C54.05 61.7848 54.4602 62.2454 54.4394 62.998C54.4168 63.7646 54.0622 64.3121 53.3808 64.6528C52.8715 64.9084 52.324 64.9588 51.7677 64.9066C50.9629 64.8319 50.2294 64.5555 49.5723 64.081C49.5271 64.0479 49.4767 64.0201 49.4107 63.9784C49.5932 63.7264 49.7462 63.5126 49.9096 63.2848C50.106 63.403 50.2711 63.5091 50.4415 63.6064C51.0185 63.9332 51.6321 64.1401 52.3014 64.081C52.5604 64.0584 52.8367 63.9836 53.061 63.855C53.6554 63.5108 53.6815 62.7599 53.1009 62.3966C52.7828 62.1985 52.4074 62.0872 52.0528 61.9551C51.6426 61.8021 51.2167 61.6926 50.8134 61.5258C50.1477 61.2494 49.7166 60.7835 49.7409 60.01C49.7653 59.2191 50.1633 58.6785 50.8812 58.3761C51.6217 58.0632 52.3761 58.1327 53.1253 58.3465C53.5303 58.4595 53.9231 58.616 54.2951 58.9062Z" fill="#FEFFFF"/>
<path d="M59.4612 59.148C58.7712 59.148 58.1263 59.148 57.4623 59.148C57.4466 59.2958 57.4258 59.4053 57.4258 59.5148C57.424 60.6464 57.424 61.778 57.4258 62.9078C57.4258 63.0208 57.4345 63.1338 57.4553 63.2433C57.5509 63.7092 57.8238 63.9595 58.2966 63.9977C58.4931 64.0134 58.693 64.0064 58.8876 63.9786C59.0667 63.9525 59.2388 63.8847 59.4387 63.8291C59.4387 64.1003 59.4387 64.3506 59.4387 64.5991C58.792 65.0215 57.7282 65.0163 57.1077 64.5939C56.7583 64.3558 56.5723 64.0151 56.501 63.6118C56.4611 63.3911 56.4472 63.1616 56.4472 62.9374C56.4419 61.8493 56.4454 60.7594 56.4454 59.6713C56.4454 59.5183 56.4454 59.3636 56.4454 59.1672C56.1482 59.1533 55.8874 59.1411 55.585 59.1289C55.585 58.8699 55.585 58.6144 55.585 58.3172C55.8422 58.305 56.1047 58.2928 56.4298 58.2789C56.4298 57.6445 56.4298 57.017 56.4298 56.353C56.7792 56.353 57.066 56.353 57.4119 56.353C57.4119 56.9735 57.4119 57.6028 57.4119 58.2859C58.1211 58.2859 58.7781 58.2859 59.463 58.2859C59.4613 58.5883 59.4612 58.8352 59.4612 59.148Z" fill="#FEFFFF"/>
<path d="M25.2061 64.7591C25.2061 62.6002 25.2061 60.4865 25.2061 58.3485C25.5085 58.2598 25.8093 58.2911 26.1517 58.3276C26.1517 58.7987 26.1517 59.2593 26.1517 59.819C26.4298 59.4749 26.6158 59.1794 26.8644 58.9551C27.1216 58.7222 27.4206 58.5119 27.7352 58.3728C28.0498 58.2355 28.4079 58.1973 28.7903 58.1069C28.7903 58.5067 28.7903 58.8387 28.7903 59.1985C28.6252 59.2176 28.4601 59.2263 28.2984 59.2558C27.2555 59.4401 26.4872 60.1928 26.2716 61.2739C26.2021 61.6181 26.1778 61.9727 26.1691 62.3238C26.1534 62.9878 26.1639 63.6518 26.1639 64.3158C26.1639 64.4532 26.1639 64.5922 26.1639 64.7608C25.8301 64.7591 25.5416 64.7591 25.2061 64.7591Z" fill="#FEFFFF"/>
<path d="M40.4172 55.5958C40.4172 58.6742 40.4172 61.6935 40.4172 64.7406C40.1025 64.8223 39.8018 64.8101 39.4733 64.7476C39.4733 61.7074 39.4733 58.6759 39.4733 55.6253C39.5585 55.6149 39.6263 55.5992 39.6941 55.5975C39.9183 55.594 40.1425 55.5958 40.4172 55.5958Z" fill="#FEFFFF"/>
</g>
<defs>
<clipPath id="clip0_10_2">
<rect width="59.4563" height="64" fill="white" transform="translate(0.476166 0.952576)"/>
</clipPath>
</defs>
</svg>
