<svg width="24" height="25" viewBox="0 0 24 25" fill="none" xmlns="http://www.w3.org/2000/svg">
<path d="M20.9469 8.63547C20.9369 7.87351 20.7951 7.11913 20.5279 6.40608C20.2963 5.80462 19.9425 5.25838 19.4891 4.80227C19.0358 4.34617 18.4928 3.99022 17.8949 3.75717C17.1953 3.49294 16.4561 3.35006 15.7089 3.33463C14.7469 3.29137 14.4419 3.2793 11.9999 3.2793C9.55795 3.2793 9.24495 3.2793 8.28995 3.33463C7.54311 3.35018 6.8043 3.49305 6.10495 3.75717C5.50701 3.99006 4.96397 4.34595 4.51058 4.80208C4.05719 5.2582 3.70344 5.80452 3.47195 6.40608C3.20878 7.10943 3.06707 7.85288 3.05295 8.60428C3.00995 9.5731 2.99695 9.87994 2.99695 12.3367C2.99695 14.7935 2.99695 15.1073 3.05295 16.0691C3.06795 16.8216 3.20895 17.5641 3.47195 18.2693C3.70383 18.8707 4.05784 19.4168 4.51138 19.8727C4.96492 20.3287 5.50801 20.6844 6.10595 20.9172C6.80338 21.1921 7.54232 21.3452 8.29095 21.3699C9.25395 21.4132 9.55895 21.4263 12.0009 21.4263C14.4429 21.4263 14.7559 21.4263 15.7109 21.3699C16.4581 21.3551 17.1973 21.2126 17.8969 20.9484C18.4946 20.7151 19.0375 20.3591 19.4908 19.903C19.9441 19.4469 20.298 18.9008 20.5299 18.2995C20.7929 17.5953 20.9339 16.8528 20.9489 16.0993C20.9919 15.1315 21.0049 14.8246 21.0049 12.3669C21.0029 9.91012 21.0029 9.59825 20.9469 8.63547V8.63547ZM11.9939 16.9826C9.43995 16.9826 7.37095 14.9011 7.37095 12.3317C7.37095 9.76223 9.43995 7.68073 11.9939 7.68073C13.22 7.68073 14.3959 8.17074 15.2629 9.04296C16.1299 9.91518 16.6169 11.0982 16.6169 12.3317C16.6169 13.5652 16.1299 14.7482 15.2629 15.6204C14.3959 16.4926 13.22 16.9826 11.9939 16.9826V16.9826ZM16.8009 8.59321C16.6593 8.59334 16.5191 8.56538 16.3883 8.51093C16.2574 8.45647 16.1385 8.37659 16.0384 8.27586C15.9383 8.17513 15.8589 8.05552 15.8047 7.92388C15.7506 7.79224 15.7228 7.65116 15.7229 7.5087C15.7229 7.36634 15.7508 7.22538 15.805 7.09387C15.8591 6.96235 15.9385 6.84285 16.0385 6.74219C16.1386 6.64153 16.2574 6.56168 16.3881 6.5072C16.5188 6.45273 16.659 6.42469 16.8004 6.42469C16.9419 6.42469 17.0821 6.45273 17.2128 6.5072C17.3435 6.56168 17.4623 6.64153 17.5624 6.74219C17.6624 6.84285 17.7418 6.96235 17.7959 7.09387C17.8501 7.22538 17.8779 7.36634 17.8779 7.5087C17.8779 8.1083 17.3959 8.59321 16.8009 8.59321Z" fill="white"/>
<path d="M11.994 15.3509C13.6525 15.3509 14.997 13.9983 14.997 12.3297C14.997 10.6612 13.6525 9.30859 11.994 9.30859C10.3355 9.30859 8.99097 10.6612 8.99097 12.3297C8.99097 13.9983 10.3355 15.3509 11.994 15.3509Z" fill="white"/>
</svg>
