<svg width="32" height="32" viewBox="0 0 32 32" fill="none" xmlns="http://www.w3.org/2000/svg">
<g clip-path="url(#clip0_127_331)">
<path d="M26.9147 23.4555C26.6066 25.5093 25.5703 27.3866 23.9966 28.7418C22.423 30.0969 20.4127 30.8432 18.3359 30.8432H12.6828C10.6061 30.8432 8.59573 30.0969 7.02211 28.7418C5.44849 27.3866 4.41215 25.5091 4.10409 23.4555L2.2534 11.1181C1.87848 8.6183 2.60946 6.08598 4.25905 4.17062C5.90863 2.25525 8.30452 1.1566 10.8323 1.1566H20.1866C22.7144 1.1566 25.1103 2.25508 26.7599 4.17062C28.4095 6.08598 29.1404 8.6183 28.7655 11.1181L28.6693 11.759H29.8389L29.9093 11.2897C30.3342 8.45661 29.5059 5.58676 27.6364 3.41589C25.7666 1.24502 23.0514 0 20.1865 0H10.8321C7.96733 0 5.2521 1.24502 3.38255 3.41589C1.51299 5.58659 0.684664 8.45661 1.10961 11.2897L2.96013 23.6271C3.30928 25.9548 4.48373 28.0824 6.26721 29.6183C8.0507 31.1542 10.329 32 12.6826 32H18.3358C20.6894 32 22.9677 31.1542 24.7512 29.6183C26.5347 28.0824 27.7091 25.9546 28.0583 23.6271L28.5663 20.241H27.3967L26.9145 23.4555H26.9147Z" fill="black"/>
<path d="M20.9153 21.7262C20.1454 22.62 19.0274 23.1327 17.8479 23.1327H13.1706C11.9909 23.1327 10.8729 22.62 10.1032 21.7262C9.3333 20.8323 8.99224 19.6506 9.16723 18.4839L10.0926 12.3153C10.2362 11.3569 10.72 10.4807 11.4543 9.84829C12.1887 9.21584 13.1268 8.86753 14.0959 8.86753H16.9227C17.8918 8.86753 18.83 9.21584 19.5643 9.84829C20.1538 10.3559 20.5813 11.0209 20.8016 11.7591H21.9962C21.7497 10.6783 21.164 9.6994 20.3192 8.97179C19.375 8.15862 18.1689 7.71094 16.9228 7.71094H14.0961C12.8501 7.71094 11.6438 8.15879 10.6998 8.97179C9.75555 9.78496 9.13389 10.9112 8.94895 12.1436L8.02361 18.3123C7.79859 19.8122 8.23717 21.3316 9.22686 22.4809C10.2165 23.6301 11.6541 24.2893 13.1708 24.2893H17.848C19.3647 24.2893 20.8021 23.6303 21.7919 22.4809C22.3528 21.8296 22.7363 21.0592 22.9226 20.2411H21.7269C21.5659 20.7815 21.2924 21.2884 20.9154 21.7262H20.9153Z" fill="black"/>
<path d="M24.5693 20.6265C24.5693 24.1342 21.7156 26.9879 18.2079 26.9879H12.8103C9.3026 26.9879 6.44893 24.1342 6.44893 20.6265V11.3736C6.44893 7.86591 9.3026 5.01223 12.8103 5.01223H18.2079C21.7156 5.01223 24.5693 7.86591 24.5693 11.3736V11.7591H25.7259V11.3736C25.7259 7.22807 22.3533 3.85547 18.2077 3.85547H12.8101C8.6646 3.85547 5.29199 7.22807 5.29199 11.3736V20.6265C5.29199 24.7721 8.6646 28.1447 12.8101 28.1447H18.2077C22.3533 28.1447 25.7259 24.7721 25.7259 20.6265V20.241H24.5693V20.6265Z" fill="black"/>
<path d="M14.4983 15.965C14.4983 16.2015 14.5473 16.4243 14.6455 16.6337C14.7437 16.843 14.8761 17.0261 15.0427 17.1827C15.2093 17.3394 15.4026 17.4627 15.6229 17.5523C15.8431 17.642 16.0767 17.6868 16.3236 17.6868C16.5139 17.6868 16.6933 17.659 16.8614 17.6035C17.0295 17.5479 17.1864 17.4731 17.3323 17.3791C17.4899 17.2765 17.6685 17.2253 17.8679 17.2253C18.0225 17.2253 18.1551 17.2489 18.2652 17.2959C18.3752 17.3429 18.4764 17.4106 18.5687 17.4989L18.9482 17.862C18.7636 18.05 18.5681 18.2196 18.3612 18.3705C18.1544 18.5216 17.9402 18.6497 17.7185 18.755C17.4968 18.8604 17.2685 18.9416 17.0333 18.9986C16.7982 19.0555 16.5617 19.0839 16.3237 19.0839C16.0231 19.0839 15.7331 19.0469 15.4535 18.9729C15.1737 18.8988 14.9118 18.7942 14.6679 18.6588C14.4239 18.5236 14.2022 18.3612 14.003 18.1717C13.8036 17.9823 13.6326 17.7722 13.4898 17.5415C13.3469 17.3107 13.2361 17.0623 13.1573 16.7958C13.0785 16.5296 13.0391 16.2525 13.0391 15.9648C13.0391 15.6771 13.0785 15.4001 13.1573 15.1338C13.2361 14.8675 13.3469 14.6189 13.4898 14.3882C13.6326 14.1574 13.8037 13.9474 14.003 13.7579C14.2022 13.5684 14.424 13.4061 14.6679 13.2708C14.9118 13.1356 15.1737 13.031 15.4535 12.9569C15.7331 12.8828 16.0233 12.8457 16.3237 12.8457C16.5617 12.8457 16.7982 12.8742 17.0333 12.9311C17.2683 12.9882 17.4967 13.0692 17.7185 13.1746C17.9402 13.2801 18.1544 13.4083 18.3612 13.5592C18.5681 13.7102 18.7636 13.8797 18.9482 14.0676L18.5687 14.4308C18.4795 14.5162 18.3769 14.5839 18.2608 14.6337C18.1448 14.6836 18.0138 14.7085 17.8681 14.7085C17.6717 14.7085 17.4931 14.6558 17.3325 14.5504C17.1836 14.4535 17.0253 14.3781 16.8572 14.3238C16.6891 14.2698 16.5112 14.2426 16.3237 14.2426C16.0767 14.2426 15.8432 14.2883 15.6231 14.3794C15.4028 14.4705 15.2094 14.5938 15.0429 14.7489C14.8761 14.9042 14.7439 15.0865 14.6457 15.2958C14.5475 15.5052 14.4985 15.728 14.4985 15.9645L14.4983 15.965Z" fill="black"/>
<path d="M21.6753 19.0291H20.2158V12.9062H22.7956C23.0931 12.9062 23.3737 12.9639 23.6369 13.0792C23.9002 13.1946 24.1294 13.3499 24.3243 13.5449C24.5192 13.7401 24.6731 13.9665 24.7863 14.2244C24.8993 14.4822 24.9559 14.7521 24.9559 15.034C24.9559 15.316 24.8993 15.5859 24.7863 15.8436C24.6731 16.1015 24.5192 16.3279 24.3243 16.5231C24.1294 16.7183 23.9004 16.8734 23.6369 16.9888C23.3737 17.1042 23.0931 17.1618 22.7956 17.1618H21.6754V19.029L21.6753 19.0291ZM22.8 15.7604C22.8893 15.7604 22.9755 15.739 23.0589 15.6963C23.1421 15.6535 23.2159 15.5981 23.2799 15.5297C23.3439 15.4613 23.3951 15.3837 23.4338 15.2968C23.4724 15.2098 23.4917 15.1223 23.4917 15.034C23.4917 14.9457 23.4724 14.8582 23.4338 14.7713C23.3951 14.6843 23.3437 14.6067 23.2799 14.5383C23.2159 14.4699 23.1423 14.4144 23.0589 14.3717C22.9755 14.329 22.8893 14.3076 22.8 14.3076H21.6753V15.7603H22.8V15.7604Z" fill="black"/>
<path d="M27.2366 15.965C27.2366 16.2015 27.2856 16.4243 27.3838 16.6337C27.482 16.843 27.6144 17.0261 27.781 17.1827C27.9475 17.3394 28.1409 17.4627 28.3612 17.5523C28.5813 17.642 28.8149 17.6868 29.0619 17.6868C29.2522 17.6868 29.4316 17.659 29.5997 17.6035C29.7677 17.5479 29.9247 17.4731 30.0706 17.3791C30.2282 17.2765 30.4068 17.2253 30.6062 17.2253C30.7608 17.2253 30.8933 17.2489 31.0035 17.2959C31.1135 17.3429 31.2147 17.4106 31.307 17.4989L31.6865 17.862C31.5019 18.05 31.3063 18.2196 31.0995 18.3705C30.8927 18.5216 30.6784 18.6497 30.4568 18.755C30.2351 18.8604 30.0067 18.9416 29.7716 18.9986C29.5365 19.0555 29.3 19.0839 29.062 19.0839C28.7614 19.0839 28.4714 19.0469 28.1918 18.9729C27.912 18.8988 27.6501 18.7942 27.4062 18.6588C27.1622 18.5236 26.9405 18.3612 26.7413 18.1717C26.5418 17.9823 26.3709 17.7722 26.2281 17.5415C26.0852 17.3107 25.9744 17.0623 25.8956 16.7958C25.8168 16.5296 25.7773 16.2525 25.7773 15.9648C25.7773 15.6771 25.8168 15.4001 25.8956 15.1338C25.9744 14.8675 26.0852 14.6189 26.2281 14.3882C26.3709 14.1574 26.542 13.9474 26.7413 13.7579C26.9405 13.5684 27.1623 13.4061 27.4062 13.2708C27.6501 13.1356 27.912 13.031 28.1918 12.9569C28.4714 12.8828 28.7616 12.8457 29.062 12.8457C29.3 12.8457 29.5365 12.8742 29.7716 12.9311C30.0066 12.9882 30.235 13.0692 30.4568 13.1746C30.6784 13.2801 30.8927 13.4083 31.0995 13.5592C31.3063 13.7102 31.5019 13.8797 31.6865 14.0676L31.307 14.4308C31.2177 14.5162 31.1152 14.5839 30.9991 14.6337C30.8831 14.6836 30.752 14.7085 30.6063 14.7085C30.41 14.7085 30.2314 14.6558 30.0707 14.5504C29.9219 14.4535 29.7635 14.3781 29.5954 14.3238C29.4273 14.2698 29.2495 14.2426 29.062 14.2426C28.8149 14.2426 28.5815 14.2883 28.3614 14.3794C28.1411 14.4705 27.9477 14.5938 27.7811 14.7489C27.6144 14.9042 27.4822 15.0865 27.384 15.2958C27.2858 15.5052 27.2368 15.728 27.2368 15.9645L27.2366 15.965Z" fill="black"/>
</g>
<defs>
<clipPath id="clip0_127_331">
<rect width="30.6859" height="32" fill="white" transform="translate(1)"/>
</clipPath>
</defs>
</svg>
